HIERARCHY
ROOT Hips
{
  OFFSET 346.003 88.7533 237.413
  CHANNELS 6 Xposition Yposition Zposition Zrotation Xrotation Yrotation
  JOINT RightUpLeg
  {
    OFFSET -9.26802 -1.58264 0.0217161
    CHANNELS 6 Xposition Yposition Zposition Zrotation Xrotation Yrotation
    JOINT RightLeg
    {
      OFFSET -0.0377026 -41.8721 0.0179395
      CHANNELS 6 Xposition Yposition Zposition Zrotation Xrotation Yrotation
      JOINT RightFoot
      {
        OFFSET -1.24572 -40.7807 1.11978
        CHANNELS 6 Xposition Yposition Zposition Zrotation Xrotation Yrotation
        End Site
        {
          OFFSET 0 -7.69 17.5
        }
      }
    }
  }
  JOINT LeftUpLeg
  {
    OFFSET 9.30666 -1.6399 0.02861
    CHANNELS 6 Xposition Yposition Zposition Zrotation Xrotation Yrotation
    JOINT LeftLeg
    {
      OFFSET 0.0386914 -41.8876 0.0404075
      CHANNELS 6 Xposition Yposition Zposition Zrotation Xrotation Yrotation
      JOINT LeftFoot
      {
        OFFSET 0.504156 -42.8741 -1.65533
        CHANNELS 6 Xposition Yposition Zposition Zrotation Xrotation Yrotation
        End Site
        {
          OFFSET 0 -7.69 17.5
        }
      }
    }
  }
  JOINT Spine
  {
    OFFSET 0.0156638 14.3048 0.0620744
    CHANNELS 6 Xposition Yposition Zposition Zrotation Xrotation Yrotation
    JOINT Spine1
    {
      OFFSET -0.00462339 9.70807 0.0326817
      CHANNELS 6 Xposition Yposition Zposition Zrotation Xrotation Yrotation
      JOINT Spine2
      {
        OFFSET 0.0390626 10.1159 -0.0215179
        CHANNELS 6 Xposition Yposition Zposition Zrotation Xrotation Yrotation
        JOINT Spine3
        {
          OFFSET 0.00893664 9.725 -0.00434787
          CHANNELS 6 Xposition Yposition Zposition Zrotation Xrotation Yrotation
          JOINT Neck
          {
            OFFSET 0.0802962 10.3794 -0.068109
            CHANNELS 6 Xposition Yposition Zposition Zrotation Xrotation Yrotation
            JOINT Head
            {
              OFFSET -0.053158 9.4713 -0.034559
              CHANNELS 6 Xposition Yposition Zposition Zrotation Xrotation Yrotation
              End Site
              {
                OFFSET 0 15.95 0
              }
            }
          }
          JOINT RightShoulder
          {
            OFFSET -3.18248 6.9154 0.00291953
            CHANNELS 6 Xposition Yposition Zposition Zrotation Xrotation Yrotation
            JOINT RightArm
            {
              OFFSET -12.8044 0.0292422 0.0185245
              CHANNELS 6 Xposition Yposition Zposition Zrotation Xrotation Yrotation
              JOINT RightForeArm
              {
                OFFSET -26.4455 -0.0350596 -0.0899503
                CHANNELS 6 Xposition Yposition Zposition Zrotation Xrotation Yrotation
                JOINT RightHand
                {
                  OFFSET -25.9086 -0.0302623 0.0454701
                  CHANNELS 6 Xposition Yposition Zposition Zrotation Xrotation Yrotation
                  JOINT RightHandThumb1
                  {
                    OFFSET -2.48905 0.190105 3.12053
                    CHANNELS 6 Xposition Yposition Zposition Zrotation Xrotation Yrotation
                    JOINT RightHandThumb2
                    {
                      OFFSET -3.68274 0 0
                      CHANNELS 6 Xposition Yposition Zposition Zrotation Xrotation Yrotation
                      JOINT RightHandThumb3
                      {
                        OFFSET -2.55832 0 0
                        CHANNELS 6 Xposition Yposition Zposition Zrotation Xrotation Yrotation
                        End Site
                        {
                          OFFSET -2.194 0 0
                        }
                      }
                    }
                  }
                  JOINT RightInHandIndex
                  {
                    OFFSET -3.22368 0.508421 1.97842
                    CHANNELS 6 Xposition Yposition Zposition Zrotation Xrotation Yrotation
                    JOINT RightHandIndex1
                    {
                      OFFSET -5.21684 -0.091368 0.999158
                      CHANNELS 6 Xposition Yposition Zposition Zrotation Xrotation Yrotation
                      JOINT RightHandIndex2
                      {
                        OFFSET -3.61937 0 0
                        CHANNELS 6 Xposition Yposition Zposition Zrotation Xrotation Yrotation
                        JOINT RightHandIndex3
                        {
                          OFFSET -2.0521 0 0
                          CHANNELS 6 Xposition Yposition Zposition Zrotation Xrotation Yrotation
                          End Site
                          {
                            OFFSET -1.805 0 0
                          }
                        }
                      }
                    }
                  }
                  JOINT RightInHandMiddle
                  {
                    OFFSET -3.38211 0.517263 0.756737
                    CHANNELS 6 Xposition Yposition Zposition Zrotation Xrotation Yrotation
                    JOINT RightHandMiddle1
                    {
                      OFFSET -5.17411 -0.084 0.313895
                      CHANNELS 6 Xposition Yposition Zposition Zrotation Xrotation Yrotation
                      JOINT RightHandMiddle2
                      {
                        OFFSET -3.94947 0 0
                        CHANNELS 6 Xposition Yposition Zposition Zrotation Xrotation Yrotation
                        JOINT RightHandMiddle3
                        {
                          OFFSET -2.47579 0 0
                          CHANNELS 6 Xposition Yposition Zposition Zrotation Xrotation Yrotation
                          End Site
                          {
                            OFFSET -1.975 0 0
                          }
                        }
                      }
                    }
                  }
                  JOINT RightInHandRing
                  {
                    OFFSET -3.36516 0.537895 -0.128947
                    CHANNELS 6 Xposition Yposition Zposition Zrotation Xrotation Yrotation
                    JOINT RightHandRing1
                    {
                      OFFSET -4.63474 -0.022105 -0.478947
                      CHANNELS 6 Xposition Yposition Zposition Zrotation Xrotation Yrotation
                      JOINT RightHandRing2
                      {
                        OFFSET -3.44238 0 0
                        CHANNELS 6 Xposition Yposition Zposition Zrotation Xrotation Yrotation
                        JOINT RightHandRing3
                        {
                          OFFSET -2.3881 0 0
                          CHANNELS 6 Xposition Yposition Zposition Zrotation Xrotation Yrotation
                          End Site
                          {
                            OFFSET -1.857 0 0
                          }
                        }
                      }
                    }
                  }
                  JOINT RightInHandPinky
                  {
                    OFFSET -3.16105 0.469368 -1.20179
                    CHANNELS 6 Xposition Yposition Zposition Zrotation Xrotation Yrotation
                    JOINT RightHandPinky1
                    {
                      OFFSET -4.14105 -0.022105 -1.09053
                      CHANNELS 6 Xposition Yposition Zposition Zrotation Xrotation Yrotation
                      JOINT RightHandPinky2
                      {
                        OFFSET -2.75653 0 0
                        CHANNELS 6 Xposition Yposition Zposition Zrotation Xrotation Yrotation
                        JOINT RightHandPinky3
                        {
                          OFFSET -1.74189 0 0
                          CHANNELS 6 Xposition Yposition Zposition Zrotation Xrotation Yrotation
                          End Site
                          {
                            OFFSET -1.645 0 0
                          }
                        }
                      }
                    }
                  }
                }
              }
            }
          }
          JOINT LeftShoulder
          {
            OFFSET 3.25079 6.89224 -0.050702
            CHANNELS 6 Xposition Yposition Zposition Zrotation Xrotation Yrotation
            JOINT LeftArm
            {
              OFFSET 12.634 -0.295782 -0.206549
              CHANNELS 6 Xposition Yposition Zposition Zrotation Xrotation Yrotation
              JOINT LeftForeArm
              {
                OFFSET 26.4636 -0.12887 -0.266873
                CHANNELS 6 Xposition Yposition Zposition Zrotation Xrotation Yrotation
                JOINT LeftHand
                {
                  OFFSET 25.9886 0.0154703 -0.0504798
                  CHANNELS 6 Xposition Yposition Zposition Zrotation Xrotation Yrotation
                  JOINT LeftHandThumb1
                  {
                    OFFSET 2.48905 0.190105 3.12053
                    CHANNELS 6 Xposition Yposition Zposition Zrotation Xrotation Yrotation
                    JOINT LeftHandThumb2
                    {
                      OFFSET 3.68274 0 0
                      CHANNELS 6 Xposition Yposition Zposition Zrotation Xrotation Yrotation
                      JOINT LeftHandThumb3
                      {
                        OFFSET 2.55832 0 0
                        CHANNELS 6 Xposition Yposition Zposition Zrotation Xrotation Yrotation
                        End Site
                        {
                          OFFSET 2.194 0 0
                        }
                      }
                    }
                  }
                  JOINT LeftInHandIndex
                  {
                    OFFSET 3.22368 0.508421 1.97842
                    CHANNELS 6 Xposition Yposition Zposition Zrotation Xrotation Yrotation
                    JOINT LeftHandIndex1
                    {
                      OFFSET 5.21684 -0.091368 0.999158
                      CHANNELS 6 Xposition Yposition Zposition Zrotation Xrotation Yrotation
                      JOINT LeftHandIndex2
                      {
                        OFFSET 3.61937 0 0
                        CHANNELS 6 Xposition Yposition Zposition Zrotation Xrotation Yrotation
                        JOINT LeftHandIndex3
                        {
                          OFFSET 2.0521 0 0
                          CHANNELS 6 Xposition Yposition Zposition Zrotation Xrotation Yrotation
                          End Site
                          {
                            OFFSET 1.805 0 0
                          }
                        }
                      }
                    }
                  }
                  JOINT LeftInHandMiddle
                  {
                    OFFSET 3.38211 0.517263 0.756737
                    CHANNELS 6 Xposition Yposition Zposition Zrotation Xrotation Yrotation
                    JOINT LeftHandMiddle1
                    {
                      OFFSET 5.17411 -0.084 0.313895
                      CHANNELS 6 Xposition Yposition Zposition Zrotation Xrotation Yrotation
                      JOINT LeftHandMiddle2
                      {
                        OFFSET 3.94947 0 0
                        CHANNELS 6 Xposition Yposition Zposition Zrotation Xrotation Yrotation
                        JOINT LeftHandMiddle3
                        {
                          OFFSET 2.47579 0 0
                          CHANNELS 6 Xposition Yposition Zposition Zrotation Xrotation Yrotation
                          End Site
                          {
                            OFFSET 1.975 0 0
                          }
                        }
                      }
                    }
                  }
                  JOINT LeftInHandRing
                  {
                    OFFSET 3.36516 0.537895 -0.128947
                    CHANNELS 6 Xposition Yposition Zposition Zrotation Xrotation Yrotation
                    JOINT LeftHandRing1
                    {
                      OFFSET 4.63474 -0.022105 -0.478947
                      CHANNELS 6 Xposition Yposition Zposition Zrotation Xrotation Yrotation
                      JOINT LeftHandRing2
                      {
                        OFFSET 3.44238 0 0
                        CHANNELS 6 Xposition Yposition Zposition Zrotation Xrotation Yrotation
                        JOINT LeftHandRing3
                        {
                          OFFSET 2.3881 0 0
                          CHANNELS 6 Xposition Yposition Zposition Zrotation Xrotation Yrotation
                          End Site
                          {
                            OFFSET 1.857 0 0
                          }
                        }
                      }
                    }
                  }
                  JOINT LeftInHandPinky
                  {
                    OFFSET 3.16105 0.469368 -1.20179
                    CHANNELS 6 Xposition Yposition Zposition Zrotation Xrotation Yrotation
                    JOINT LeftHandPinky1
                    {
                      OFFSET 4.14105 -0.022105 -1.09053
                      CHANNELS 6 Xposition Yposition Zposition Zrotation Xrotation Yrotation
                      JOINT LeftHandPinky2
                      {
                        OFFSET 2.75653 0 0
                        CHANNELS 6 Xposition Yposition Zposition Zrotation Xrotation Yrotation
                        JOINT LeftHandPinky3
                        {
                          OFFSET 1.74189 0 0
                          CHANNELS 6 Xposition Yposition Zposition Zrotation Xrotation Yrotation
                          End Site
                          {
                            OFFSET 1.645 0 0
                          }
                        }
                      }
                    }
                  }
                }
              }
            }
          }
        }
      }
    }
  }
}
MOTION
Frames:	3
Frame Time:	0.00833333
350.332 86.7729 215.807 27.0213 12.4687 -71.5195 -9.28551 -1.56049 -0.0206193 -31.2186 -55.1708 -33.0914 -0.018125 -41.8964 0.047185 1.51692 25.6813 -12.7117 -0.344404 -43.5116 0.46033 11.7881 8.09175 29.418 9.27731 -1.60499 0.0069125 22.9046 -48.8407 9.83692 0.0580207 -41.8895 0.025786 1.5735 34.2996 1.36504 0.630082 -40.4663 0.064708 -14.6103 -12.3983 -18.6397 0.0298353 14.3002 0.040078 -11.8144 9.05927 19.9534 0.0201122 9.7226 0.0160851 -2.67902 2.90224 4.75954 0.0536172 10.1206 0.0106026 -4.39843 4.83565 7.53371 0.0561246 9.71668 0.0185872 0.161859 -0.268618 -0.602574 0.0798583 10.3878 0.0437681 0.16223 -0.267319 -0.603853 0.0544 9.46545 0.025364 2.4893 -4.91961 -10.8565 -3.15804 6.94195 0.0178985 5.22558 -14.4578 18.0811 -12.7604 0.0614067 0.0649495 68.4652 2.13549 53.5577 -26.5101 -0.073346 0.274032 8.77152 -50.4343 -5.06651 -25.9917 -0.196673 0.105827 23.9594 -28.1575 -20.2659 -2.48905 0.190105 3.12053 28.184 10.7294 19.1592 -3.68274 -1.42109e-14 5.68434e-14 1.96581e-14 1.59028e-15 -10 -2.55832 0 2.84217e-14 1.50941e-14 3.18055e-15 -10 -3.22368 0.508421 1.97842 3.18055e-15 -3.18055e-15 -4.77083e-15 -5.21684 -0.091368 0.999158 19.9818 0.871897 2.3964 -3.61937 1.42109e-14 -2.84217e-14 24 1.43125e-14 2.54444e-14 -2.0521 1.42109e-14 -5.68434e-14 20 7.95139e-15 1.90833e-14 -3.38211 0.517263 0.756737 3.18055e-15 -3.18055e-15 -4.77083e-15 -5.17411 -0.084 0.313895 20 -1.59028e-15 1.27222e-14 -3.94947 -2.84217e-14 0 24 6.36111e-15 9.54166e-15 -2.47579 -1.42109e-14 5.68434e-14 20 7.95139e-16 3.18055e-14 -3.36516 0.537895 -0.128947 3.18055e-15 -3.18055e-15 -4.77083e-15 -4.63474 -0.022105 -0.478947 19.9748 -1.02565 -2.81938 -3.44238 0 0 24 -5.56597e-15 1.59028e-14 -2.3881 0 -5.68434e-14 20 -1.59028e-15 2.22639e-14 -3.16105 0.469368 -1.20179 3.18055e-15 -3.18055e-15 -4.77083e-15 -4.14105 -0.022105 -1.09053 19.7815 -3.00948 -8.30515 -2.75653 2.84217e-14 0 24 -3.97569e-15 1.27222e-14 -1.74189 0 -2.84217e-14 20 4.77083e-15 1.27222e-14 3.26368 6.92138 -0.012734 13.9306 -13.3947 -31.6238 12.8316 -0.042131 -0.0569509 -27.711 33.5881 -74.6128 26.4978 -0.039105 -0.0936 21.2755 -76.0168 25.5365 26.0004 0.022674 -0.016655 -25.1495 -21.7759 9.19684 2.48905 0.190105 3.12053 -28.184 10.7294 -19.1592 3.68274 0 -2.84217e-14 -1.05399e-15 -3.18055e-15 10 2.55832 0 -2.84217e-14 4.35126e-15 -6.36111e-15 10 3.22368 0.508421 1.97842 9.54166e-15 3.18055e-15 -0 5.21684 -0.091368 0.999158 -19.9818 0.871897 -2.3964 3.61937 -2.84217e-14 0 -24 -4.37326e-15 -1.59028e-14 2.0521 7.10543e-15 0 -20 1.59028e-15 -1.59028e-14 3.38211 0.517263 0.756737 9.54166e-15 3.18055e-15 -0 5.17411 -0.084 0.313895 -20 0 -6.36111e-15 3.94947 0 0 -24 7.95139e-15 6.36111e-15 2.47579 -7.10543e-15 2.84217e-14 -20 0 -6.36111e-15 3.36516 0.537895 -0.128947 9.54166e-15 3.18055e-15 -0 4.63474 -0.022105 -0.478947 -19.9748 -1.02565 2.81938 3.44238 2.84217e-14 0 -24 2.78299e-15 -0 2.3881 0 -2.84217e-14 -20 -1.59028e-15 6.36111e-15 3.16105 0.469368 -1.20179 9.54166e-15 3.18055e-15 -0 4.14105 -0.022105 -1.09053 -19.7815 -3.00948 8.30515 2.75653 2.84217e-14 0 -24 1.19271e-15 3.18055e-15 1.74189 7.10543e-15 0 -20 -3.18055e-15 -1.27222e-14 
350.331 86.773 215.816 27.0324 12.4287 -71.6284 -9.28864 -1.56036 -0.0220792 -31.0694 -55.2254 -32.9068 -0.0246894 -41.8966 0.046786 1.50088 25.6208 -12.6568 -0.375051 -43.5124 0.457603 11.7605 8.13867 29.3735 9.27671 -1.60609 0.00588178 22.9885 -48.7868 9.9707 0.0580191 -41.8883 0.0176442 1.50224 34.3486 1.44123 0.635915 -40.4604 0.095397 -14.589 -12.4392 -18.6767 0.0302202 14.3002 0.043339 -11.8231 9.02086 19.9915 0.0204089 9.72273 0.0162006 -2.67983 2.8949 4.77048 0.0542153 10.1206 0.00924326 -4.39954 4.8248 7.54986 0.0567339 9.71668 0.0180633 0.159274 -0.26544 -0.602384 0.0820135 10.3878 0.0454345 0.159632 -0.264152 -0.603661 0.0607249 9.46547 0.0272935 2.46537 -4.87078 -10.8287 -3.15712 6.94085 0.0181692 5.33312 -14.2499 18.0749 -12.7593 0.0616489 0.0650271 68.3682 2.01973 53.3473 -26.5101 -0.0499281 0.0357409 11.2402 -53.355 -1.9863 -25.9942 0.0058328 -0.0282351 22.2268 -26.1389 -21.8279 -2.48905 0.190105 3.12053 28.184 10.7294 19.1592 -3.68274 1.42109e-14 -5.68434e-14 1.68491e-14 3.97569e-15 -10 -2.55832 1.42109e-14 -5.68434e-14 7.23282e-15 -4.77083e-15 -10 -3.22368 0.508421 1.97842 3.18055e-15 0 -1.59028e-15 -5.21684 -0.091368 0.999158 19.9818 0.871897 2.3964 -3.61937 0 0 24 1.19271e-15 1.90833e-14 -2.0521 7.10543e-15 0 20 7.15625e-15 2.22639e-14 -3.38211 0.517263 0.756737 3.18055e-15 0 -1.59028e-15 -5.17411 -0.084 0.313895 20 -1.59028e-15 -6.36111e-15 -3.94947 -1.42109e-14 -2.84217e-14 24 3.97569e-16 3.18055e-15 -2.47579 2.13163e-14 2.84217e-14 20 0 1.27222e-14 -3.36516 0.537895 -0.128947 3.18055e-15 0 -1.59028e-15 -4.63474 -0.022105 -0.478947 19.9748 -1.02565 -2.81938 -3.44238 0 -5.68434e-14 24 -9.54166e-15 -0 -2.3881 0 -2.84217e-14 20 1.35174e-14 1.59028e-14 -3.16105 0.469368 -1.20179 3.18055e-15 0 -1.59028e-15 -4.14105 -0.022105 -1.09053 19.7815 -3.00948 -8.30515 -2.75653 -2.84217e-14 4.26326e-14 24 1.59028e-15 6.36111e-15 -1.74189 0 0 20 1.59028e-15 3.18055e-15 3.26416 6.92108 -0.0131927 13.9266 -13.3722 -31.6608 12.8316 -0.0439511 -0.0571101 -27.5295 33.528 -74.7613 26.4978 -0.0566 -0.0442247 19.5997 -74.2057 23.9741 26.0004 -0.0231761 -0.0752667 -25.8108 -23.626 8.33754 2.48905 0.190105 3.12053 -28.184 10.7294 -19.1592 3.68274 0 -2.84217e-14 3.22962e-15 0 10 2.55832 2.84217e-14 0 3.79044e-15 -3.18055e-15 10 3.22368 0.508421 1.97842 -6.36111e-15 -3.18055e-15 -3.18055e-15 5.21684 -0.091368 0.999158 -19.9818 0.871897 -2.3964 3.61937 0 -2.84217e-14 -24 5.56597e-15 -6.36111e-15 2.0521 1.42109e-14 0 -20 0 -6.36111e-15 3.38211 0.517263 0.756737 -6.36111e-15 -3.18055e-15 -3.18055e-15 5.17411 -0.084 0.313895 -20 -4.77083e-15 -3.18055e-15 3.94947 0 0 -24 1.59028e-15 9.54166e-15 2.47579 7.10543e-15 -2.84217e-14 -20 -4.77083e-15 1.27222e-14 3.36516 0.537895 -0.128947 -6.36111e-15 -3.18055e-15 -3.18055e-15 4.63474 -0.022105 -0.478947 -19.9748 -1.02565 2.81938 3.44238 0 0 -24 3.77691e-15 -0 2.3881 0 -2.84217e-14 -20 -3.18055e-15 3.18055e-15 3.16105 0.469368 -1.20179 -6.36111e-15 -3.18055e-15 -3.18055e-15 4.14105 -0.022105 -1.09053 -19.7815 -3.00948 8.30515 2.75653 0 -2.84217e-14 -24 5.96354e-16 -3.18055e-15 1.74189 0 2.84217e-14 -20 -3.18055e-15 -3.18055e-15 
350.331 86.773 215.823 27.048 12.3786 -71.7514 -9.28963 -1.56024 -0.0234997 -30.9231 -55.2807 -32.7174 -0.0249334 -41.8968 0.0466952 1.47731 25.5477 -12.5908 -0.3982 -43.5129 0.447872 11.7381 8.20049 29.329 9.27612 -1.60677 0.00492199 23.0764 -48.7314 10.116 0.0580102 -41.8875 0.0112054 1.42481 34.4025 1.51977 0.640525 -40.4552 0.123603 -14.56 -12.4874 -18.7063 0.030654 14.3001 0.04761 -11.8214 8.97342 20.0367 0.020748 9.72285 0.0163161 -2.68069 2.88487 4.78402 0.054798 10.1206 0.00794653 -4.40072 4.80963 7.57021 0.0573181 9.71668 0.0175353 0.156428 -0.262007 -0.602192 0.0834114 10.3878 0.0472616 0.156778 -0.260732 -0.603466 0.0666125 9.4655 0.0293109 2.42065 -4.80004 -10.8079 -3.1562 6.94046 0.0184448 5.37392 -14.0147 18.0386 -12.7582 0.0618756 0.0653248 68.3246 1.90779 53.1093 -26.5101 -0.0589962 0.0332871 12.6493 -54.2081 -0.201798 -25.9947 -0.00565507 -0.0263634 22.0533 -25.7976 -21.9609 -2.48905 0.190105 3.12053 28.184 10.7294 19.1592 -3.68274 1.42109e-14 0 6.80975e-15 1.98785e-15 -10 -2.55832 -1.42109e-14 0 -6.03863e-15 2.38542e-15 -10 -3.22368 0.508421 1.97842 3.18055e-15 -3.18055e-15 6.36111e-15 -5.21684 -0.091368 0.999158 19.9818 0.871897 2.3964 -3.61937 0 2.84217e-14 24 5.1684e-15 6.36111e-15 -2.0521 -1.42109e-14 0 20 1.19271e-14 2.22639e-14 -3.38211 0.517263 0.756737 3.18055e-15 -3.18055e-15 6.36111e-15 -5.17411 -0.084 0.313895 20 -7.95139e-15 9.54166e-15 -3.94947 0 -5.68434e-14 24 -5.1684e-15 1.90833e-14 -2.47579 1.42109e-14 0 20 1.43125e-14 3.49861e-14 -3.36516 0.537895 -0.128947 3.18055e-15 -3.18055e-15 6.36111e-15 -4.63474 -0.022105 -0.478947 19.9748 -1.02565 -2.81938 -3.44238 0 5.68434e-14 24 -1.07344e-14 1.59028e-14 -2.3881 2.84217e-14 0 20 9.54166e-15 6.36111e-15 -3.16105 0.469368 -1.20179 3.18055e-15 -3.18055e-15 6.36111e-15 -4.14105 -0.022105 -1.09053 19.7815 -3.00948 -8.30515 -2.75653 0 1.42109e-14 24 1.03368e-14 6.36111e-15 -1.74189 -1.42109e-14 -1.42109e-14 20 -7.95139e-16 -0 3.26465 6.92078 -0.0136343 13.9098 -13.3381 -31.72 12.8315 -0.0451488 -0.0572082 -27.3433 33.4668 -74.9076 26.4977 -0.056732 -0.0447808 19.3444 -73.7083 23.7975 26.0004 -0.0190552 -0.121619 -26.0119 -24.2553 8.09749 2.48905 0.190105 3.12053 -28.184 10.7294 -19.1592 3.68274 -2.84217e-14 0 3.29726e-15 -9.54166e-15 10 2.55832 0 0 -2.6688e-15 -3.18055e-15 10 3.22368 0.508421 1.97842 3.18055e-15 0 6.36111e-15 5.21684 -0.091368 0.999158 -19.9818 0.871897 -2.3964 3.61937 2.84217e-14 0 -24 1.98785e-15 -6.36111e-15 2.0521 0 0 -20 -7.95139e-16 -0 3.38211 0.517263 0.756737 3.18055e-15 0 6.36111e-15 5.17411 -0.084 0.313895 -20 7.95139e-15 -3.18055e-15 3.94947 0 2.84217e-14 -24 -1.19271e-15 3.18055e-15 2.47579 1.42109e-14 0 -20 1.59028e-15 -3.18055e-15 3.36516 0.537895 -0.128947 3.18055e-15 0 6.36111e-15 4.63474 -0.022105 -0.478947 -19.9748 -1.02565 2.81938 3.44238 0 -2.84217e-14 -24 -1.59028e-15 -9.54166e-15 2.3881 -2.13163e-14 0 -20 1.59028e-15 -0 3.16105 0.469368 -1.20179 3.18055e-15 0 6.36111e-15 4.14105 -0.022105 -1.09053 -19.7815 -3.00948 8.30515 2.75653 0 5.68434e-14 -24 3.08116e-15 -3.18055e-15 1.74189 0 -5.68434e-14 -20 1.11319e-14 -1.27222e-14 
